<svg width="59" height="50" viewBox="0 0 59 50" fill="none" xmlns="http://www.w3.org/2000/svg">
<g clip-path="url(#clip0_25_202)">
<path d="M45.59 10.52V14.38H43.89V17.12H45.59C45.41 18.46 45.99 24.85 45.17 25.95C45.07 27.29 33.17 33.44 32.17 34.28C31.6312 34.5995 31.0164 34.7681 30.39 34.7681C29.7636 34.7681 29.1488 34.5995 28.61 34.28L17 27.41C16.818 27.3081 16.647 27.1874 16.49 27.05C14.33 25.64 15.49 19.61 15.21 17.52C18.5 18.52 18.49 12.94 15.21 13.98C15.28 11.89 14.68 8.49002 17 7.36002L28.62 0.490023C30.39 -0.709977 32.43 0.540023 34 1.54002C33 3.54002 36 5.30002 37.2 3.43002L38.76 4.35002C34.86 6.71002 41.19 10.46 41.24 5.82002" fill="white"/>
<path d="M27.06 22.5L21.65 18.32V15.43L27.05 11.35V14.16L23.34 16.87L27.05 19.68L27.06 22.5Z" fill="#2393B2"/>
<path d="M38.69 18.32L33.28 22.5V19.71L37 16.89L33.27 14.16V11.35L38.67 15.43L38.69 18.32Z" fill="#2393B2"/>
<path d="M3.62406 43.9041C3.15588 43.9041 2.71949 43.8289 2.31489 43.6787C1.91607 43.5226 1.56927 43.303 1.27449 43.0197C0.97971 42.7365 0.74851 42.4042 0.58089 42.0227C0.41905 41.6412 0.33813 41.2222 0.33813 40.7655C0.33813 40.3089 0.41905 39.8899 0.58089 39.5084C0.74851 39.1269 0.97971 38.7946 1.27449 38.5113C1.57505 38.2281 1.92474 38.0114 2.32356 37.8611C2.72238 37.705 3.15877 37.627 3.63273 37.627C4.15871 37.627 4.63267 37.7195 5.05461 37.9044C5.48233 38.0836 5.84069 38.3495 6.12969 38.7021L5.22801 39.5344C5.01993 39.2974 4.78873 39.1211 4.53441 39.0055C4.28009 38.8842 4.00265 38.8235 3.70209 38.8235C3.41887 38.8235 3.15877 38.8697 2.92179 38.9622C2.68481 39.0547 2.47962 39.1876 2.30622 39.361C2.13282 39.5344 1.99699 39.7396 1.89873 39.9766C1.80625 40.2136 1.76001 40.4765 1.76001 40.7655C1.76001 41.0545 1.80625 41.3175 1.89873 41.5545C1.99699 41.7915 2.13282 41.9967 2.30622 42.1701C2.47962 42.3435 2.68481 42.4764 2.92179 42.5689C3.15877 42.6614 3.41887 42.7076 3.70209 42.7076C4.00265 42.7076 4.28009 42.6498 4.53441 42.5342C4.78873 42.4128 5.01993 42.2308 5.22801 41.988L6.12969 42.8203C5.84069 43.1729 5.48233 43.4417 5.05461 43.6266C4.63267 43.8116 4.15582 43.9041 3.62406 43.9041ZM9.89897 43.9041C9.41923 43.9041 8.97417 43.8261 8.56379 43.67C8.15919 43.5139 7.80661 43.2943 7.50605 43.0111C7.21127 42.7279 6.98007 42.3955 6.81245 42.014C6.65061 41.6325 6.56969 41.2164 6.56969 40.7655C6.56969 40.3147 6.65061 39.8985 6.81245 39.5171C6.98007 39.1356 7.21416 38.8032 7.51472 38.52C7.81528 38.2368 8.16786 38.0172 8.57246 37.8611C8.97706 37.705 9.41634 37.627 9.8903 37.627C10.37 37.627 10.8093 37.705 11.2081 37.8611C11.6127 38.0172 11.9624 38.2368 12.2572 38.52C12.5578 38.8032 12.7919 39.1356 12.9595 39.5171C13.1271 39.8928 13.2109 40.3089 13.2109 40.7655C13.2109 41.2164 13.1271 41.6354 12.9595 42.0227C12.7919 42.4042 12.5578 42.7365 12.2572 43.0197C11.9624 43.2972 11.6127 43.5139 11.2081 43.67C10.8093 43.8261 10.3729 43.9041 9.89897 43.9041ZM9.8903 42.7076C10.162 42.7076 10.4105 42.6614 10.6359 42.5689C10.8671 42.4764 11.0694 42.3435 11.2428 42.1701C11.4162 41.9967 11.5492 41.7915 11.6416 41.5545C11.7399 41.3175 11.789 41.0545 11.789 40.7655C11.789 40.4765 11.7399 40.2136 11.6416 39.9766C11.5492 39.7396 11.4162 39.5344 11.2428 39.361C11.0752 39.1876 10.8758 39.0547 10.6446 38.9622C10.4134 38.8697 10.162 38.8235 9.8903 38.8235C9.61864 38.8235 9.36721 38.8697 9.13601 38.9622C8.91059 39.0547 8.71118 39.1876 8.53778 39.361C8.36438 39.5344 8.22855 39.7396 8.13029 39.9766C8.03781 40.2136 7.99157 40.4765 7.99157 40.7655C7.99157 41.0488 8.03781 41.3118 8.13029 41.5545C8.22855 41.7915 8.36149 41.9967 8.52911 42.1701C8.70251 42.3435 8.90481 42.4764 9.13601 42.5689C9.36721 42.6614 9.61864 42.7076 9.8903 42.7076ZM14.2665 43.8V37.731H17.0235C17.6825 37.731 18.2634 37.8582 18.7662 38.1125C19.2691 38.3611 19.6621 38.7108 19.9453 39.1616C20.2286 39.6124 20.3702 40.1471 20.3702 40.7655C20.3702 41.3782 20.2286 41.9129 19.9453 42.3695C19.6621 42.8203 19.2691 43.1729 18.7662 43.4272C18.2634 43.6758 17.6825 43.8 17.0235 43.8H14.2665ZM15.671 42.6469H16.9542C17.3588 42.6469 17.7085 42.5718 18.0033 42.4215C18.3038 42.2655 18.535 42.0458 18.6969 41.7626C18.8645 41.4794 18.9483 41.147 18.9483 40.7655C18.9483 40.3783 18.8645 40.0459 18.6969 39.7685C18.535 39.4853 18.3038 39.2685 18.0033 39.1182C17.7085 38.9622 17.3588 38.8842 16.9542 38.8842H15.671V42.6469ZM22.7212 40.176H25.643V41.2684H22.7212V40.176ZM22.8253 42.6729H26.1285V43.8H21.4294V37.731H26.0158V38.8581H22.8253V42.6729Z" fill="#2393B2"/>
<path d="M28.5032 42.4128L28.4252 40.7916L31.3297 37.731H32.8903L30.2719 40.5488L29.4916 41.3811L28.5032 42.4128ZM27.2461 43.8V37.731H28.642V43.8H27.2461ZM31.399 43.8L29.2402 41.1557L30.1592 40.1586L33.0376 43.8H31.399ZM33.6639 43.8V37.731H36.2909C36.8342 37.731 37.3024 37.8206 37.6955 37.9998C38.0885 38.1732 38.392 38.4246 38.6058 38.7541C38.8197 39.0836 38.9266 39.4766 38.9266 39.9332C38.9266 40.3841 38.8197 40.7742 38.6058 41.1037C38.392 41.4274 38.0885 41.6759 37.6955 41.8493C37.3024 42.0227 36.8342 42.1094 36.2909 42.1094H34.4442L35.0685 41.4938V43.8H33.6639ZM37.5221 43.8L36.0048 41.5979H37.5047L39.0393 43.8H37.5221ZM35.0685 41.6499L34.4442 40.991H36.2129C36.6464 40.991 36.9701 40.8985 37.1839 40.7135C37.3978 40.5228 37.5047 40.2627 37.5047 39.9332C37.5047 39.598 37.3978 39.3379 37.1839 39.1529C36.9701 38.968 36.6464 38.8755 36.2129 38.8755H34.4442L35.0685 38.2079V41.6499ZM39.2418 43.8L41.9468 37.731H43.334L46.0477 43.8H44.5738L42.3543 38.442H42.9092L40.681 43.8H39.2418ZM40.5943 42.4995L40.9671 41.4331H44.0883L44.4698 42.4995H40.5943ZM47.9779 40.4621H50.891V41.5892H47.9779V40.4621ZM48.0819 43.8H46.6774V37.731H51.2638V38.8581H48.0819V43.8ZM53.5142 43.8V38.8755H51.5721V37.731H56.8608V38.8755H54.9187V43.8H53.5142Z" fill="#D9B78C"/>
<path d="M13.6194 48.28V45.242H14.8216C15.1428 45.242 15.4249 45.3071 15.6679 45.4373C15.911 45.5675 16.099 45.7469 16.2321 45.9755C16.3681 46.2041 16.4361 46.4659 16.4361 46.761C16.4361 47.0561 16.3681 47.318 16.2321 47.5466C16.099 47.7751 15.911 47.9545 15.6679 48.0847C15.4249 48.2149 15.1428 48.28 14.8216 48.28H13.6194ZM13.8408 48.0804H14.8043C15.0907 48.0804 15.3395 48.024 15.5507 47.9111C15.762 47.7983 15.9254 47.6435 16.0412 47.4467C16.1569 47.2471 16.2148 47.0185 16.2148 46.761C16.2148 46.5035 16.1569 46.2764 16.0412 46.0796C15.9254 45.88 15.762 45.7238 15.5507 45.6109C15.3395 45.4981 15.0907 45.4417 14.8043 45.4417H13.8408V48.0804ZM18.0557 48.2974C17.8271 48.2974 17.6246 48.2482 17.4481 48.1498C17.2745 48.0515 17.137 47.9155 17.0358 47.7419C16.9374 47.5683 16.8882 47.3701 16.8882 47.1473C16.8882 46.9216 16.9345 46.7234 17.0271 46.5527C17.1226 46.3791 17.2528 46.2431 17.4177 46.1447C17.5826 46.0464 17.7678 45.9972 17.9732 45.9972C18.1786 45.9972 18.3624 46.0449 18.5244 46.1404C18.6893 46.2359 18.8181 46.3704 18.9107 46.544C19.0061 46.7147 19.0539 46.9129 19.0539 47.1386C19.0539 47.1473 19.0524 47.1574 19.0495 47.169C19.0495 47.1777 19.0495 47.1878 19.0495 47.1994H17.0488V47.0301H18.9324L18.8456 47.1126C18.8484 46.9361 18.8108 46.7784 18.7327 46.6395C18.6575 46.4977 18.5548 46.3878 18.4246 46.3097C18.2944 46.2287 18.1439 46.1881 17.9732 46.1881C17.8054 46.1881 17.6549 46.2287 17.5219 46.3097C17.3917 46.3878 17.2889 46.4977 17.2137 46.6395C17.1385 46.7784 17.1009 46.9375 17.1009 47.1169V47.156C17.1009 47.3411 17.1414 47.5061 17.2224 47.6507C17.3063 47.7925 17.4206 47.9039 17.5653 47.9849C17.7099 48.063 17.8748 48.1021 18.06 48.1021C18.2047 48.1021 18.3392 48.076 18.4636 48.024C18.5909 47.9719 18.698 47.8923 18.7848 47.7853L18.9107 47.9285C18.8123 48.05 18.6879 48.1426 18.5374 48.2062C18.3899 48.267 18.2293 48.2974 18.0557 48.2974ZM20.2981 48.2974C20.11 48.2974 19.9335 48.2699 19.7686 48.2149C19.6066 48.16 19.4807 48.0905 19.391 48.0066L19.4908 47.833C19.5776 47.9082 19.6934 47.9733 19.838 48.0283C19.9827 48.0804 20.1389 48.1064 20.3067 48.1064C20.544 48.1064 20.7147 48.0674 20.8189 47.9892C20.923 47.9111 20.9751 47.8084 20.9751 47.6811C20.9751 47.5885 20.9476 47.5162 20.8926 47.4641C20.8406 47.4091 20.7697 47.3672 20.68 47.3382C20.5903 47.3093 20.4919 47.2862 20.3849 47.2688C20.2778 47.2486 20.1708 47.2269 20.0637 47.2037C19.9566 47.1806 19.8583 47.1473 19.7686 47.1039C19.6789 47.0605 19.6066 47.0012 19.5516 46.9259C19.4995 46.8478 19.4735 46.7451 19.4735 46.6178C19.4735 46.5021 19.5053 46.3979 19.5689 46.3053C19.6326 46.2127 19.7281 46.139 19.8554 46.084C19.9827 46.0261 20.1418 45.9972 20.3328 45.9972C20.4746 45.9972 20.6163 46.0174 20.7581 46.0579C20.9028 46.0985 21.0199 46.152 21.1096 46.2185L21.0098 46.3921C20.9143 46.3198 20.8073 46.2677 20.6887 46.2359C20.57 46.2041 20.45 46.1881 20.3284 46.1881C20.1085 46.1881 19.9465 46.2287 19.8424 46.3097C19.7411 46.3907 19.6905 46.4919 19.6905 46.6135C19.6905 46.7089 19.7165 46.7856 19.7686 46.8435C19.8236 46.8985 19.8959 46.9419 19.9856 46.9737C20.0753 47.0026 20.1736 47.0272 20.2807 47.0475C20.3878 47.0648 20.4948 47.0851 20.6019 47.1082C20.7089 47.1314 20.8073 47.1646 20.897 47.208C20.9867 47.2486 21.0576 47.3064 21.1096 47.3816C21.1646 47.454 21.1921 47.5524 21.1921 47.6768C21.1921 47.8012 21.1574 47.9097 21.0879 48.0023C21.0214 48.0949 20.9216 48.1672 20.7885 48.2193C20.6554 48.2713 20.4919 48.2974 20.2981 48.2974ZM21.7977 48.28V46.0145H22.0147V48.28H21.7977ZM21.9062 45.4634C21.857 45.4634 21.8151 45.446 21.7803 45.4113C21.7456 45.3766 21.7283 45.3361 21.7283 45.2898C21.7283 45.2406 21.7456 45.1986 21.7803 45.1639C21.8151 45.1292 21.857 45.1118 21.9062 45.1118C21.9583 45.1118 22.0002 45.1292 22.0321 45.1639C22.0668 45.1957 22.0841 45.2362 22.0841 45.2854C22.0841 45.3346 22.0668 45.3766 22.0321 45.4113C22.0002 45.446 21.9583 45.4634 21.9062 45.4634ZM23.8711 49.1393C23.6657 49.1393 23.4704 49.1075 23.2852 49.0439C23.1 48.9802 22.9496 48.892 22.8338 48.7791L22.951 48.6142C23.0639 48.7184 23.1984 48.7994 23.3546 48.8572C23.5138 48.9151 23.6845 48.944 23.8668 48.944C24.1706 48.944 24.3933 48.8732 24.5351 48.7314C24.6798 48.5896 24.7521 48.3668 24.7521 48.063V47.4337L24.7955 47.0952L24.7608 46.7567V46.0145H24.9691V48.037C24.9691 48.416 24.8765 48.6938 24.6914 48.8703C24.5091 49.0497 24.2357 49.1393 23.8711 49.1393ZM23.8103 48.1976C23.5962 48.1976 23.4038 48.1513 23.2331 48.0587C23.0653 47.9632 22.9308 47.833 22.8295 47.6681C22.7311 47.5003 22.6819 47.3093 22.6819 47.0952C22.6819 46.8782 22.7311 46.6872 22.8295 46.5223C22.9308 46.3574 23.0653 46.2287 23.2331 46.1361C23.4038 46.0435 23.5962 45.9972 23.8103 45.9972C24.0158 45.9972 24.1995 46.042 24.3615 46.1317C24.5264 46.2185 24.6566 46.3444 24.7521 46.5093C24.8476 46.6713 24.8953 46.8666 24.8953 47.0952C24.8953 47.3209 24.8476 47.5162 24.7521 47.6811C24.6566 47.846 24.5264 47.9733 24.3615 48.063C24.1995 48.1527 24.0158 48.1976 23.8103 48.1976ZM23.8277 48.0023C24.01 48.0023 24.1706 47.9647 24.3094 47.8894C24.4483 47.8113 24.5568 47.7043 24.6349 47.5683C24.716 47.4294 24.7565 47.2717 24.7565 47.0952C24.7565 46.9158 24.716 46.7581 24.6349 46.6221C24.5568 46.4862 24.4483 46.3806 24.3094 46.3053C24.1706 46.2301 24.01 46.1925 23.8277 46.1925C23.6512 46.1925 23.4921 46.2301 23.3503 46.3053C23.2114 46.3806 23.1015 46.4862 23.0205 46.6221C22.9423 46.7581 22.9033 46.9158 22.9033 47.0952C22.9033 47.2717 22.9423 47.4294 23.0205 47.5683C23.1015 47.7043 23.2114 47.8113 23.3503 47.8894C23.4921 47.9647 23.6512 48.0023 23.8277 48.0023ZM26.9943 45.9972C27.1795 45.9972 27.3401 46.0334 27.4761 46.1057C27.615 46.1751 27.722 46.2822 27.7972 46.4268C27.8754 46.5686 27.9144 46.7451 27.9144 46.9563V48.28H27.6974V46.9737C27.6974 46.7191 27.6323 46.5252 27.5021 46.3921C27.3748 46.259 27.1954 46.1925 26.964 46.1925C26.7875 46.1925 26.6341 46.2287 26.5039 46.301C26.3737 46.3733 26.2739 46.4746 26.2045 46.6048C26.1379 46.735 26.1046 46.8912 26.1046 47.0735V48.28H25.8876V46.0145H26.096V46.6438L26.0656 46.5744C26.135 46.395 26.2493 46.2547 26.4084 46.1534C26.5676 46.0493 26.7629 45.9972 26.9943 45.9972ZM30.6776 48.3017C30.4867 48.3017 30.316 48.2699 30.1655 48.2062C30.018 48.1426 29.9008 48.0543 29.814 47.9415C29.7301 47.8258 29.6881 47.6927 29.6881 47.5422C29.6881 47.4178 29.7156 47.3035 29.7706 47.1994C29.8256 47.0923 29.9153 46.9867 30.0397 46.8825C30.167 46.7755 30.3362 46.6627 30.5474 46.544C30.7326 46.437 30.8787 46.3444 30.9858 46.2663C31.0928 46.1881 31.1681 46.1129 31.2115 46.0406C31.2549 45.9683 31.2766 45.8901 31.2766 45.8062C31.2766 45.6818 31.2346 45.582 31.1507 45.5068C31.0697 45.4315 30.9525 45.3939 30.7992 45.3939C30.6371 45.3939 30.5098 45.4359 30.4172 45.5198C30.3276 45.6008 30.2827 45.7093 30.2827 45.8453C30.2827 45.9089 30.2928 45.9697 30.3131 46.0276C30.3333 46.0854 30.3695 46.1505 30.4216 46.2229C30.4766 46.2923 30.5518 46.3791 30.6473 46.4833L32.2574 48.1802L32.1272 48.3234L30.4693 46.5787C30.3681 46.4717 30.2885 46.3777 30.2306 46.2966C30.1728 46.2156 30.1323 46.1404 30.1091 46.071C30.0889 45.9986 30.0787 45.9234 30.0787 45.8453C30.0787 45.7209 30.1077 45.6124 30.1655 45.5198C30.2263 45.4272 30.3102 45.3549 30.4172 45.3028C30.5272 45.2507 30.6545 45.2247 30.7992 45.2247C30.9352 45.2247 31.0523 45.2478 31.1507 45.2941C31.252 45.3404 31.3301 45.4069 31.3851 45.4937C31.44 45.5777 31.4675 45.6804 31.4675 45.8019C31.4675 45.9089 31.4415 46.0088 31.3894 46.1013C31.3402 46.191 31.2563 46.2822 31.1377 46.3748C31.0191 46.4645 30.857 46.5672 30.6516 46.6829C30.4606 46.7929 30.3102 46.8927 30.2002 46.9824C30.0903 47.0721 30.0122 47.1603 29.9659 47.2471C29.9225 47.331 29.9008 47.4236 29.9008 47.5249C29.9008 47.6435 29.9341 47.7477 30.0006 47.8373C30.0672 47.927 30.1583 47.9965 30.274 48.0457C30.3927 48.0949 30.5301 48.1194 30.6863 48.1194C30.8946 48.1194 31.0798 48.0775 31.2418 47.9936C31.4039 47.9068 31.5399 47.7766 31.6498 47.603C31.7598 47.4294 31.8393 47.2109 31.8885 46.9476L32.0664 47.0041C32.0115 47.2905 31.9203 47.5307 31.793 47.7245C31.6657 47.9155 31.508 48.0601 31.32 48.1585C31.1319 48.254 30.9178 48.3017 30.6776 48.3017ZM35.2351 48.3017C35.0094 48.3017 34.7997 48.2641 34.6058 48.1889C34.4149 48.1108 34.2485 48.0023 34.1067 47.8634C33.9649 47.7245 33.855 47.5625 33.7769 47.3773C33.6988 47.1892 33.6597 46.9838 33.6597 46.761C33.6597 46.5382 33.6988 46.3343 33.7769 46.1491C33.855 45.961 33.9649 45.7975 34.1067 45.6587C34.2514 45.5198 34.4192 45.4127 34.6102 45.3375C34.8011 45.2594 35.0094 45.2203 35.2351 45.2203C35.4492 45.2203 35.6489 45.255 35.834 45.3245C36.0221 45.3939 36.1827 45.4995 36.3158 45.6413L36.1769 45.7845C36.0467 45.6572 35.902 45.5661 35.7429 45.5111C35.5867 45.4532 35.4203 45.4243 35.2438 45.4243C35.0499 45.4243 34.8691 45.4576 34.7013 45.5241C34.5364 45.5907 34.3917 45.6847 34.2673 45.8062C34.1458 45.9277 34.0503 46.0695 33.9809 46.2315C33.9143 46.3936 33.881 46.5701 33.881 46.761C33.881 46.952 33.9143 47.1285 33.9809 47.2905C34.0503 47.4525 34.1458 47.5943 34.2673 47.7158C34.3917 47.8373 34.5364 47.9314 34.7013 47.9979C34.8691 48.0645 35.0499 48.0977 35.2438 48.0977C35.4203 48.0977 35.5867 48.0703 35.7429 48.0153C35.902 47.9574 36.0467 47.8634 36.1769 47.7332L36.3158 47.8764C36.1827 48.0182 36.0221 48.1252 35.834 48.1976C35.6489 48.267 35.4492 48.3017 35.2351 48.3017ZM37.7671 48.2974C37.5501 48.2974 37.3563 48.2482 37.1855 48.1498C37.0177 48.0515 36.8832 47.9155 36.7819 47.7419C36.6836 47.5683 36.6344 47.3701 36.6344 47.1473C36.6344 46.9216 36.6836 46.7234 36.7819 46.5527C36.8832 46.3791 37.0177 46.2431 37.1855 46.1447C37.3563 46.0464 37.5501 45.9972 37.7671 45.9972C37.9841 45.9972 38.178 46.0464 38.3487 46.1447C38.5194 46.2431 38.6539 46.3791 38.7523 46.5527C38.8507 46.7234 38.8998 46.9216 38.8998 47.1473C38.8998 47.3701 38.8507 47.5683 38.7523 47.7419C38.6539 47.9155 38.5194 48.0515 38.3487 48.1498C38.178 48.2482 37.9841 48.2974 37.7671 48.2974ZM37.7671 48.1021C37.9407 48.1021 38.0969 48.063 38.2358 47.9849C38.3747 47.9039 38.4832 47.7911 38.5613 47.6464C38.6394 47.5017 38.6785 47.3354 38.6785 47.1473C38.6785 46.9563 38.6394 46.79 38.5613 46.6482C38.4832 46.5035 38.3747 46.3921 38.2358 46.314C38.0969 46.233 37.9407 46.1925 37.7671 46.1925C37.5935 46.1925 37.4373 46.233 37.2984 46.314C37.1624 46.3921 37.0539 46.5035 36.9729 46.6482C36.8948 46.79 36.8557 46.9563 36.8557 47.1473C36.8557 47.3354 36.8948 47.5017 36.9729 47.6464C37.0539 47.7911 37.1624 47.9039 37.2984 47.9849C37.4373 48.063 37.5935 48.1021 37.7671 48.1021ZM40.4454 48.2974C40.2342 48.2974 40.0432 48.2496 39.8725 48.1542C39.7047 48.0558 39.5716 47.9198 39.4732 47.7462C39.3749 47.5726 39.3257 47.373 39.3257 47.1473C39.3257 46.9187 39.3749 46.7191 39.4732 46.5484C39.5716 46.3748 39.7047 46.2402 39.8725 46.1447C40.0432 46.0464 40.2342 45.9972 40.4454 45.9972C40.645 45.9972 40.8244 46.0435 40.9836 46.1361C41.1456 46.2287 41.2729 46.3603 41.3655 46.531C41.461 46.7017 41.5087 46.9071 41.5087 47.1473C41.5087 47.3816 41.4624 47.5856 41.3698 47.7592C41.2772 47.9328 41.1499 48.0659 40.9879 48.1585C40.8288 48.2511 40.6479 48.2974 40.4454 48.2974ZM40.4584 48.1021C40.632 48.1021 40.7868 48.063 40.9228 47.9849C41.0617 47.9039 41.1702 47.7911 41.2483 47.6464C41.3293 47.5017 41.3698 47.3354 41.3698 47.1473C41.3698 46.9563 41.3293 46.79 41.2483 46.6482C41.1702 46.5035 41.0617 46.3921 40.9228 46.314C40.7868 46.233 40.632 46.1925 40.4584 46.1925C40.2848 46.1925 40.1286 46.233 39.9897 46.314C39.8537 46.3921 39.7452 46.5035 39.6642 46.6482C39.5861 46.79 39.547 46.9563 39.547 47.1473C39.547 47.3354 39.5861 47.5017 39.6642 47.6464C39.7452 47.7911 39.8537 47.9039 39.9897 47.9849C40.1286 48.063 40.2848 48.1021 40.4584 48.1021ZM41.3742 48.28V47.5379L41.4132 47.1429L41.3698 46.748V45.0597H41.5868V48.28H41.3742ZM43.4218 48.2974C43.1932 48.2974 42.9907 48.2482 42.8142 48.1498C42.6406 48.0515 42.5032 47.9155 42.4019 47.7419C42.3035 47.5683 42.2543 47.3701 42.2543 47.1473C42.2543 46.9216 42.3006 46.7234 42.3932 46.5527C42.4887 46.3791 42.6189 46.2431 42.7838 46.1447C42.9487 46.0464 43.1339 45.9972 43.3393 45.9972C43.5448 45.9972 43.7285 46.0449 43.8905 46.1404C44.0554 46.2359 44.1842 46.3704 44.2768 46.544C44.3722 46.7147 44.42 46.9129 44.42 47.1386C44.42 47.1473 44.4185 47.1574 44.4156 47.169C44.4156 47.1777 44.4156 47.1878 44.4156 47.1994H42.4149V47.0301H44.2985L44.2117 47.1126C44.2146 46.9361 44.1769 46.7784 44.0988 46.6395C44.0236 46.4977 43.9209 46.3878 43.7907 46.3097C43.6605 46.2287 43.51 46.1881 43.3393 46.1881C43.1715 46.1881 43.0211 46.2287 42.888 46.3097C42.7578 46.3878 42.6551 46.4977 42.5798 46.6395C42.5046 46.7784 42.467 46.9375 42.467 47.1169V47.156C42.467 47.3411 42.5075 47.5061 42.5885 47.6507C42.6724 47.7925 42.7867 47.9039 42.9314 47.9849C43.076 48.063 43.241 48.1021 43.4261 48.1021C43.5708 48.1021 43.7053 48.076 43.8297 48.024C43.9571 47.9719 44.0641 47.8923 44.1509 47.7853L44.2768 47.9285C44.1784 48.05 44.054 48.1426 43.9035 48.2062C43.756 48.267 43.5954 48.2974 43.4218 48.2974Z" fill="#2393B2"/>
<path d="M28.5684 22.3742L29.941 19.4846L30.1336 20.6163C29.8126 20.6163 29.5477 20.516 29.339 20.3153C29.1303 20.1066 29.026 19.8458 29.026 19.5327C29.026 19.1555 29.1464 18.8545 29.3872 18.6297C29.636 18.397 29.933 18.2806 30.2781 18.2806C30.5992 18.2806 30.8601 18.3809 31.0607 18.5816C31.2694 18.7822 31.3738 19.0431 31.3738 19.3642C31.3738 19.5408 31.3417 19.7053 31.2774 19.8578C31.2132 20.0103 31.1049 20.203 30.9524 20.4357L29.7484 22.3742H28.5684Z" fill="#D9B78C"/>
<path d="M30.1535 14.5864C29.8325 14.5864 29.5676 14.486 29.3589 14.2854C29.1502 14.0767 29.0459 13.8158 29.0459 13.5028C29.0459 13.1255 29.1663 12.8245 29.4071 12.5998C29.6559 12.367 29.9529 12.2506 30.298 12.2506C30.6191 12.2506 30.88 12.3509 31.0806 12.5516C31.2893 12.7523 31.3937 13.0131 31.3937 13.3342C31.3937 13.583 31.3335 13.8038 31.2131 13.9964C31.1007 14.181 30.9522 14.3255 30.7676 14.4299C30.583 14.5342 30.3783 14.5864 30.1535 14.5864Z" fill="#D9B78C"/>
</g>
<defs>
<clipPath id="clip0_25_202">
<rect width="58.85" height="49.75" fill="white"/>
</clipPath>
</defs>
</svg>
